<svg xmlns="http://www.w3.org/2000/svg" viewBox="0 0 64 64" width="64" height="64">
  <!-- Puzzle pieces representing design patterns -->
  
  <!-- Top left piece -->
  <path d="M8,8 L24,8 L24,16 Q28,16 28,20 Q28,24 24,24 L24,32 L8,32 L8,20 Q12,20 12,16 Q12,12 8,12 Z" 
        fill="#3498DB" stroke="#2980B9" stroke-width="1"/>
  
  <!-- Top right piece -->
  <path d="M28,8 L48,8 L48,20 Q44,20 44,24 Q44,28 48,28 L48,32 L32,32 L32,24 Q28,24 28,20 Q28,16 32,16 L32,8 Z" 
        fill="#E74C3C" stroke="#C0392B" stroke-width="1"/>
  
  <!-- Bottom left piece -->
  <path d="M8,32 L24,32 L24,40 Q28,40 28,44 Q28,48 24,48 L24,56 L8,56 L8,44 Q12,44 12,40 Q12,36 8,36 Z" 
        fill="#27AE60" stroke="#229954" stroke-width="1"/>
  
  <!-- Bottom right piece -->
  <path d="M32,32 L48,32 L48,44 Q44,44 44,48 Q44,52 48,52 L48,56 L32,56 L32,48 Q28,48 28,44 Q28,40 32,40 Z" 
        fill="#F39C12" stroke="#E67E22" stroke-width="1"/>
  
  <!-- Center connecting elements -->
  <circle cx="24" cy="20" r="2" fill="#95A5A6"/>
  <circle cx="32" cy="20" r="2" fill="#95A5A6"/>
  <circle cx="24" cy="44" r="2" fill="#95A5A6"/>
  <circle cx="32" cy="44" r="2" fill="#95A5A6"/>
  
  <!-- Pattern labels -->
  <text x="16" y="22" text-anchor="middle" fill="white" font-size="5" font-weight="bold" font-family="Arial">S</text>
  <text x="40" y="22" text-anchor="middle" fill="white" font-size="5" font-weight="bold" font-family="Arial">F</text>
  <text x="16" y="46" text-anchor="middle" fill="white" font-size="5" font-weight="bold" font-family="Arial">O</text>
  <text x="40" y="46" text-anchor="middle" fill="white" font-size="5" font-weight="bold" font-family="Arial">M</text>
</svg> 