<svg xmlns="http://www.w3.org/2000/svg" viewBox="0 0 64 64" width="64" height="64">
  <!-- Load Balancer -->
  <rect x="26" y="4" width="12" height="8" rx="2" fill="#3498DB" stroke="#2980B9" stroke-width="1"/>
  <text x="32" y="9" text-anchor="middle" fill="white" font-size="5" font-weight="bold" font-family="Arial">LB</text>
  
  <!-- Servers -->
  <rect x="8" y="20" width="10" height="12" rx="1" fill="#27AE60" stroke="#229954" stroke-width="1"/>
  <rect x="22" y="20" width="10" height="12" rx="1" fill="#27AE60" stroke="#229954" stroke-width="1"/>
  <rect x="36" y="20" width="10" height="12" rx="1" fill="#27AE60" stroke="#229954" stroke-width="1"/>
  <rect x="50" y="20" width="10" height="12" rx="1" fill="#27AE60" stroke="#229954" stroke-width="1"/>
  
  <!-- Server indicators -->
  <circle cx="13" cy="24" r="1" fill="#2ECC71"/>
  <circle cx="27" cy="24" r="1" fill="#2ECC71"/>
  <circle cx="41" cy="24" r="1" fill="#2ECC71"/>
  <circle cx="55" cy="24" r="1" fill="#2ECC71"/>
  
  <!-- Database -->
  <ellipse cx="20" cy="48" rx="8" ry="4" fill="#E74C3C" stroke="#C0392B" stroke-width="1"/>
  <ellipse cx="20" cy="44" rx="8" ry="4" fill="#E74C3C" stroke="#C0392B" stroke-width="1"/>
  <rect x="12" y="44" width="16" height="4" fill="#E74C3C"/>
  <text x="20" y="46" text-anchor="middle" fill="white" font-size="5" font-weight="bold" font-family="Arial">DB</text>
  
  <!-- Cache -->
  <rect x="40" y="42" width="12" height="8" rx="2" fill="#F39C12" stroke="#E67E22" stroke-width="1"/>
  <text x="46" y="47" text-anchor="middle" fill="white" font-size="5" font-weight="bold" font-family="Arial">Cache</text>
  
  <!-- Connections -->
  <line x1="32" y1="12" x2="13" y2="20" stroke="#95A5A6" stroke-width="1"/>
  <line x1="32" y1="12" x2="27" y2="20" stroke="#95A5A6" stroke-width="1"/>
  <line x1="32" y1="12" x2="41" y2="20" stroke="#95A5A6" stroke-width="1"/>
  <line x1="32" y1="12" x2="55" y2="20" stroke="#95A5A6" stroke-width="1"/>
  
  <line x1="27" y1="32" x2="20" y2="44" stroke="#95A5A6" stroke-width="1"/>
  <line x1="41" y1="32" x2="46" y2="42" stroke="#95A5A6" stroke-width="1"/>
  
  <!-- API Gateway indicator -->
  <circle cx="32" cy="16" r="2" fill="#9B59B6"/>
</svg> 