<svg data-v-423bf9ae="" xmlns="http://www.w3.org/2000/svg" viewBox="0 0 237.47610731297706 163" class="iconAbove"><!----><!----><!----><g data-v-423bf9ae="" id="82775b0c-a4c4-4274-ab6b-e4d9b3062dc0" fill="white" transform="matrix(5.736137646384677,0,0,5.736137646384677,-3.3843228103649636,102.02485501426636)"><path d="M7.88 8.37L8.60 10.32L8.60 10.32Q8.27 10.47 7.93 10.55L7.93 10.55L7.93 10.55Q7.59 10.63 7.25 10.63L7.25 10.63L7.25 10.63Q6.89 10.63 6.53 10.57L6.53 10.57L6.53 10.57Q6.17 10.51 5.84 10.35L5.84 10.35L5.84 10.35Q5.50 10.18 5.20 9.88L5.20 9.88L5.20 9.88Q4.90 9.58 4.63 9.07L4.63 9.07L3.56 6.71L2.98 6.71L2.98 10.37L3.11 10.50L0.59 10.50L0.73 10.37L0.73 0.29L0.59 0.17L3.11 0.17L2.98 0.29L2.98 4.27L3.44 4.27L5.18 0.29L5.17 0.29L5.04 0.17L7.74 0.17L7.62 0.29L5.19 5.32L6.58 8.05L6.58 8.05Q6.80 8.48 7.16 8.55L7.16 8.55L7.16 8.55Q7.52 8.61 7.88 8.37L7.88 8.37ZM11.10 7.83L11.10 7.83L11.10 7.83Q11.10 8.13 11.33 8.29L11.33 8.29L11.33 8.29Q11.56 8.46 11.84 8.46L11.84 8.46L11.84 8.46Q12.11 8.47 12.35 8.32L12.35 8.32L12.35 8.32Q12.59 8.18 12.60 7.87L12.60 7.87L14.63 7.87L14.63 7.87Q14.63 8.61 14.43 9.11L14.43 9.11L14.43 9.11Q14.22 9.62 13.86 9.94L13.86 9.94L13.86 9.94Q13.50 10.26 12.98 10.40L12.98 10.40L12.98 10.40Q12.47 10.54 11.84 10.54L11.84 10.54L11.84 10.54Q10.47 10.54 9.70 9.83L9.70 9.83L9.70 9.83Q8.93 9.11 8.93 7.84L8.93 7.84L8.93 5.14L8.93 5.14Q8.93 4.58 9.08 4.08L9.08 4.08L9.08 4.08Q9.23 3.58 9.57 3.21L9.57 3.21L9.57 3.21Q9.91 2.84 10.48 2.63L10.48 2.63L10.48 2.63Q11.05 2.41 11.87 2.41L11.87 2.41L11.87 2.41Q13.19 2.41 13.90 3.04L13.90 3.04L13.90 3.04Q14.62 3.68 14.62 5.00L14.62 5.00L14.62 5.00Q14.62 5.74 14.30 6.20L14.30 6.20L14.30 6.20Q13.99 6.65 13.48 6.95L13.48 6.95L13.48 6.95Q12.98 7.25 12.35 7.44L12.35 7.44L12.35 7.44Q11.72 7.63 11.10 7.83ZM12.54 5.03L12.54 5.03L12.54 5.03Q12.54 4.76 12.32 4.63L12.32 4.63L12.32 4.63Q12.10 4.49 11.82 4.49L11.82 4.49L11.82 4.49Q11.55 4.49 11.33 4.62L11.33 4.62L11.33 4.62Q11.10 4.75 11.10 4.98L11.10 4.98L11.10 5.77L11.10 5.77Q11.58 5.68 11.86 5.60L11.86 5.60L11.86 5.60Q12.15 5.52 12.31 5.43L12.31 5.43L12.31 5.43Q12.46 5.35 12.50 5.25L12.50 5.25L12.50 5.25Q12.54 5.15 12.54 5.03ZM17.88 5.24L17.88 5.24L17.88 5.24Q18.14 5.35 18.63 5.54L18.63 5.54L18.63 5.54Q19.11 5.73 19.58 6.06L19.58 6.06L19.58 6.06Q20.05 6.40 20.38 6.89L20.38 6.89L20.38 6.89Q20.71 7.38 20.66 8.09L20.66 8.09L20.66 8.09Q20.62 8.82 20.37 9.32L20.37 9.32L20.37 9.32Q20.12 9.81 19.72 10.11L19.72 10.11L19.72 10.11Q19.32 10.40 18.82 10.51L18.82 10.51L18.82 10.51Q18.33 10.61 17.78 10.57L17.78 10.57L17.78 10.57Q17.33 10.54 16.72 10.42L16.72 10.42L16.72 10.42Q16.11 10.30 15.50 9.98L15.50 9.98L16.17 7.85L16.17 7.85Q16.37 7.97 16.65 8.06L16.65 8.06L16.65 8.06Q16.93 8.15 17.22 8.22L17.22 8.22L17.22 8.22Q17.51 8.29 17.81 8.33L17.81 8.33L17.81 8.33Q18.10 8.37 18.33 8.37L18.33 8.37L18.33 8.37Q18.48 8.12 18.41 7.80L18.41 7.80L18.41 7.80Q18.23 7.71 17.94 7.59L17.94 7.59L17.94 7.59Q17.65 7.48 17.34 7.31L17.34 7.31L17.34 7.31Q17.02 7.14 16.71 6.90L16.71 6.90L16.71 6.90Q16.39 6.66 16.16 6.36L16.16 6.36L16.16 6.36Q15.92 6.05 15.79 5.65L15.79 5.65L15.79 5.65Q15.65 5.25 15.69 4.75L15.69 4.75L15.69 4.75Q15.74 4.31 15.86 3.98L15.86 3.98L15.86 3.98Q15.97 3.64 16.14 3.40L16.14 3.40L16.14 3.40Q16.31 3.16 16.50 3.00L16.50 3.00L16.50 3.00Q16.69 2.83 16.87 2.73L16.87 2.73L16.87 2.73Q17.33 2.45 17.88 2.40L17.88 2.40L17.88 2.40Q18.42 2.35 18.92 2.43L18.92 2.43L18.92 2.43Q19.42 2.51 19.81 2.63L19.81 2.63L19.81 2.63Q20.20 2.76 20.38 2.84L20.38 2.84L19.52 4.91L19.52 4.91Q19.40 4.87 19.21 4.82L19.21 4.82L19.21 4.82Q19.01 4.76 18.80 4.72L18.80 4.72L18.80 4.72Q18.59 4.68 18.38 4.64L18.38 4.64L18.38 4.64Q18.17 4.61 18.05 4.61L18.05 4.61L18.05 4.61Q17.99 4.61 17.93 4.68L17.93 4.68L17.93 4.68Q17.88 4.76 17.84 4.87L17.84 4.87L17.84 4.87Q17.81 4.97 17.81 5.08L17.81 5.08L17.81 5.08Q17.81 5.18 17.88 5.24ZM25.23 5.01L25.23 5.01L25.23 5.01Q25.23 4.83 25.10 4.70L25.10 4.70L25.10 4.70Q24.98 4.58 24.79 4.58L24.79 4.58L23.97 4.58L23.97 10.36L24.09 10.50L21.57 10.50L21.73 10.36L21.73 0.36L21.60 0.20L24.11 0.20L23.98 0.38L23.98 2.42L24.82 2.42L24.82 2.42Q25.51 2.42 26.00 2.61L26.00 2.61L26.00 2.61Q26.50 2.80 26.82 3.15L26.82 3.15L26.82 3.15Q27.15 3.50 27.30 4.00L27.30 4.00L27.30 4.00Q27.45 4.51 27.45 5.11L27.45 5.11L27.45 10.36L27.61 10.50L25.09 10.50L25.23 10.37L25.23 5.01ZM34.47 10.49L34.30 10.49L32.90 9.60L32.90 9.60Q32.68 9.91 32.41 10.10L32.41 10.10L32.41 10.10Q32.14 10.29 31.88 10.39L31.88 10.39L31.88 10.39Q31.61 10.49 31.37 10.51L31.37 10.51L31.37 10.51Q31.14 10.54 30.98 10.54L30.98 10.54L30.98 10.54Q30.39 10.54 29.94 10.33L29.94 10.33L29.94 10.33Q29.48 10.12 29.18 9.76L29.18 9.76L29.18 9.76Q28.88 9.39 28.72 8.92L28.72 8.92L28.72 8.92Q28.56 8.44 28.56 7.90L28.56 7.90L28.56 7.90Q28.56 7.35 28.73 6.86L28.73 6.86L28.73 6.86Q28.91 6.37 29.27 6.00L29.27 6.00L29.27 6.00Q29.62 5.63 30.16 5.41L30.16 5.41L30.16 5.41Q30.70 5.19 31.44 5.19L31.44 5.19L32.24 5.19L32.24 5.19Q32.24 4.80 32.08 4.69L32.08 4.69L32.08 4.69Q31.92 4.58 31.63 4.58L31.63 4.58L29.53 4.58L29.36 4.69L29.36 2.37L29.55 2.45L31.81 2.45L31.81 2.45Q32.40 2.45 32.88 2.60L32.88 2.60L32.88 2.60Q33.36 2.74 33.72 3.07L33.72 3.07L33.72 3.07Q34.08 3.39 34.27 3.88L34.27 3.88L34.27 3.88Q34.47 4.38 34.47 5.08L34.47 5.08L34.47 10.49ZM32.33 7.88L32.33 7.06L31.43 7.06L31.43 7.06Q31.11 7.06 30.87 7.23L30.87 7.23L30.87 7.23Q30.63 7.41 30.63 7.70L30.63 7.70L30.63 7.70Q30.63 7.84 30.69 7.99L30.69 7.99L30.69 7.99Q30.74 8.13 30.87 8.23L30.87 8.23L30.87 8.23Q31.00 8.33 31.21 8.35L31.21 8.35L31.21 8.35Q31.43 8.37 31.77 8.26L31.77 8.26L32.33 7.88ZM38.53 6.80L38.57 6.80L39.00 4.24L39.48 2.59L39.34 2.44L41.99 2.44L41.80 2.59L39.42 10.35L39.56 10.50L37.53 10.50L37.66 10.36L35.28 2.59L35.11 2.44L37.74 2.44L37.60 2.59L38.08 4.24L38.08 4.24Q38.19 4.89 38.30 5.52L38.30 5.52L38.30 5.52Q38.42 6.16 38.53 6.80L38.53 6.80Z"></path></g><!----><g data-v-423bf9ae="" id="3a41183c-75b4-40c3-ada0-076b78cb83cd" transform="matrix(1.7716535699146536,0,0,1.7716535699146536,39.27558935384059,0)" stroke="none" fill="white"><path clip-rule="evenodd" d="M80 2.3C80 1 78.9 0 77.6 0H12.3C11 0 10 1 10 2.3v44.3h70V2.3zM44.6.8c.7 0 1.2.6 1.2 1.3 0 .7-.6 1.3-1.2 1.3-.7 0-1.2-.6-1.2-1.3-.1-.7.5-1.3 1.2-1.3zm31.2 41.7H14.2V4.2h61.6v38.3zm-23.8 5c-.1.6-.5.8-1.1.8H39.1c-.6 0-1-.2-1.1-.8H0v1.6c0 .9 6.3 1.7 14 1.7h62c7.7 0 14-.8 14-1.7v-1.6H52zm8.8-25.3l-11.6-4.9v3.2l8 3.1-8 3.1v3.2L60.8 25v-2.8zM43.2 32c.3 0 .5-.1.7-.2.2-.1.3-.3.4-.6.1-.2.2-.6.3-1l3.1-12.9c.2-.6.2-1 .2-1.3 0-.3-.1-.6-.3-.7-.2-.3-.5-.3-.8-.3-.4 0-.7.1-.9.4-.1.3-.3.7-.5 1.4l-3.1 12.9c-.1.7-.2 1.1-.2 1.3 0 .6.3 1 1.1 1zm-2.4-5.4l-8-3.1 8-3v-3.2l-11.7 4.9v2.7l11.7 4.9v-3.2z"></path></g><!----></svg>